<?xml version="1.0" encoding="UTF-8" standalone="no"?>
<!-- Created with Inkscape (http://www.inkscape.org/) -->

<svg
   xmlns:dc="http://purl.org/dc/elements/1.1/"
   xmlns:cc="http://creativecommons.org/ns#"
   xmlns:rdf="http://www.w3.org/1999/02/22-rdf-syntax-ns#"
   xmlns:svg="http://www.w3.org/2000/svg"
   xmlns="http://www.w3.org/2000/svg"
   xmlns:sodipodi="http://sodipodi.sourceforge.net/DTD/sodipodi-0.dtd"
   xmlns:inkscape="http://www.inkscape.org/namespaces/inkscape"
   width="946.60669"
   height="201.64238"
   viewBox="0 0 250.45636 53.351212"
   version="1.1"
   id="svg119896"
   sodipodi:docname="norppa.svg"
   inkscape:version="0.92.3 (2405546, 2018-03-11)">
  <defs
     id="defs119890" />
  <sodipodi:namedview
     id="base"
     pagecolor="#ffffff"
     bordercolor="#666666"
     borderopacity="1.0"
     inkscape:pageopacity="0.0"
     inkscape:pageshadow="2"
     inkscape:zoom="1.4"
     inkscape:cx="76.994679"
     inkscape:cy="149.54979"
     inkscape:document-units="px"
     inkscape:current-layer="layer1"
     showgrid="false"
     units="px"
     inkscape:window-width="1920"
     inkscape:window-height="1014"
     inkscape:window-x="0"
     inkscape:window-y="34"
     inkscape:window-maximized="1"
     fit-margin-top="0"
     fit-margin-left="0"
     fit-margin-right="0"
     fit-margin-bottom="0" />
  <metadata
     id="metadata119893">
    <rdf:RDF>
      <cc:Work
         rdf:about="">
        <dc:format>image/svg+xml</dc:format>
        <dc:type
           rdf:resource="http://purl.org/dc/dcmitype/StillImage" />
        <dc:title></dc:title>
      </cc:Work>
    </rdf:RDF>
  </metadata>
  <g
     inkscape:label="Layer 1"
     inkscape:groupmode="layer"
     id="layer1"
     transform="translate(-10.306623,-235.92603)">
    <g
       id="g120466">
      <path
         inkscape:connector-curvature="0"
         d="m 12.658554,242.57913 c -0.664785,0.66476 -0.664785,1.7419 0,2.40668 0.664786,0.65806 1.741894,0.67014 2.405335,0 8.043281,-8.04194 21.136249,-8.04194 29.178185,0 0.331734,0.33145 0.764168,0.49826 1.203325,0.49826 0.437812,0 0.870275,-0.16621 1.201981,-0.49826 0.664814,-0.66478 0.664814,-1.74192 0,-2.40668 -0.491538,-0.49288 -1.060974,-0.85279 -2.267989,-1.81167 -9.758626,-6.34698 -19.561252,-6.36046 -28.663475,-0.58685 -1.934596,1.49197 -2.534928,1.87612 -3.057362,2.39852 z m 29.921527,37.98469 c -7.08435,7.08438 -18.596629,7.08438 -25.68098,0 -0.664786,-0.66481 -1.741894,-0.66481 -2.406651,0 -0.664814,0.66476 -0.664814,1.74055 0,2.40665 4.200925,4.19958 9.724699,6.30674 15.247156,6.30674 5.522429,0 11.046229,-2.10716 15.247154,-6.30674 0.664786,-0.6661 0.664786,-1.74189 0,-2.40665 -0.664785,-0.66481 -1.741865,-0.66481 -2.406679,0 m -4.113613,-2.08733 c 0.664784,-0.66481 0.664784,-1.74055 0,-2.40671 -0.664786,-0.66341 -1.741865,-0.66341 -2.406679,0 -3.482415,3.48379 -9.157952,3.48379 -12.64171,0 -0.663441,-0.66341 -1.74055,-0.66341 -2.405335,0 -0.664786,0.66616 -0.664786,1.7419 0,2.40671 2.405335,2.40668 5.562737,3.61001 8.726862,3.61001 3.16278,0 6.320183,-1.20333 8.726862,-3.61001 m 9.128284,-21.06842 c 0,-2.94925 -2.390544,-1.56464 -5.341142,-1.56464 -2.949252,0 -5.339796,-1.38461 -5.339796,1.56464 0,2.94923 10.680938,2.94923 10.680938,0 m -24.906599,0 c 0,-2.94925 -2.390573,-1.56464 -5.341141,-1.56464 -2.949253,0 -5.339798,-1.38461 -5.339798,1.56464 0,2.94923 10.680939,2.94923 10.680939,0 m 23.049502,11.39124 c -3.497204,2.35296 -8.780586,2.08032 -11.817149,-0.43109 -0.796381,-0.65406 -1.394025,-1.4115 -1.803658,-2.22805 1.027416,-1.06366 2.015869,-2.48455 2.015869,-4.0572 0,-3.28368 -8.596611,-3.28368 -8.596611,0 0,1.49472 0.897137,2.84443 1.86814,3.88933 -0.406945,0.87697 -0.997865,1.70024 -1.845282,2.39592 -1.608925,1.32823 -3.781908,2.06688 -6.121445,2.0924 h -0.113001 c -1.940631,0 -3.874568,-0.55737 -5.695677,-1.72711 -0.193388,-0.11958 -0.38546,-0.2403 -0.558708,-0.38008 -0.730583,-0.5842 -1.794246,-0.46467 -2.391889,0.2672 -0.585542,0.73061 -0.466019,1.80634 0.266052,2.39192 0.278066,0.22027 0.570752,0.41229 1.08918,0.7373 2.120603,1.36988 4.70588,2.11391 7.284463,2.11391 h 0.159917 c 3.110399,-0.0309 6.034134,-1.05022 8.247425,-2.86466 0.791031,-0.65809 1.469234,-1.38865 2.014497,-2.17298 0.545262,0.78433 1.223493,1.51489 2.01318,2.17298 2.260265,1.85469 5.244448,2.87805 8.401849,2.87805 2.671243,0 5.323691,-0.80445 7.708857,-2.39859 0.247171,-0.15276 0.479465,-0.30636 0.698371,-0.48613 0.718511,-0.60442 0.49826,-1.46797 -0.106134,-2.18648 -0.592265,-0.70507 -1.994357,-0.61103 -2.718246,-0.006"
         style="fill:#5800b6;fill-opacity:1;fill-rule:nonzero;stroke:none;stroke-width:1.34300768"
         id="path119146" />
      <path
         d="m 58.915302,277.90943 h 11.109454 v -21.18545 c 1.679328,-1.55017 3.100329,-2.45443 5.167178,-2.45443 2.841974,0 3.746234,1.55017 3.746234,5.16718 v 18.4727 h 11.109425 v -19.89367 c 0,-8.00913 -3.100301,-13.17631 -10.26976,-13.17631 -4.715063,0 -8.202913,2.19604 -10.786502,4.65047 h -0.258327 l -0.775097,-3.8754 H 58.91533 Z"
         style="font-style:normal;font-variant:normal;font-weight:900;font-stretch:normal;font-size:medium;line-height:1.25;font-family:'Source Code Pro';-inkscape-font-specification:'Source Code Pro Heavy';text-align:center;letter-spacing:-5px;word-spacing:0px;baseline-shift:baseline;text-anchor:middle;fill:#5800b6;fill-opacity:1;stroke:none;stroke-width:0.75691181"
         id="path119206"
         inkscape:connector-curvature="0" />
      <path
         d="m 109.33507,278.6845 c 8.5259,0 16.66421,-6.2006 16.66421,-16.92254 0,-10.7219 -8.13831,-16.92251 -16.66421,-16.92251 -8.52586,0 -16.66418,6.20061 -16.66418,16.92251 0,10.72194 8.13832,16.92254 16.66418,16.92254 z m 0,-8.91339 c -3.74618,0 -5.29637,-3.10033 -5.29637,-8.00915 0,-4.90882 1.55019,-8.00912 5.29637,-8.00912 3.74621,0 5.2964,3.1003 5.2964,8.00912 0,4.90882 -1.55019,8.00915 -5.2964,8.00915 z"
         style="font-style:normal;font-variant:normal;font-weight:900;font-stretch:normal;font-size:medium;line-height:1.25;font-family:'Source Code Pro';-inkscape-font-specification:'Source Code Pro Heavy';text-align:center;letter-spacing:-5px;word-spacing:0px;baseline-shift:baseline;text-anchor:middle;fill:#5800b6;fill-opacity:1;stroke:none;stroke-width:0.75691181"
         id="path119208"
         inkscape:connector-curvature="0" />
      <path
         d="m 128.62258,277.90943 h 11.10945 v -16.01828 c 2.38978,-5.42553 6.3298,-7.36324 10.01138,-7.36324 2.32523,0 3.68164,0.32295 5.61935,0.90426 l 2.19601,-9.30094 c -1.80849,-0.77506 -3.16489,-1.29178 -6.13603,-1.29178 -4.8442,0 -9.49467,2.32524 -12.59497,7.62158 h -0.25833 l -0.83969,-6.84651 h -9.10717 z"
         style="font-style:normal;font-variant:normal;font-weight:900;font-stretch:normal;font-size:medium;line-height:1.25;font-family:'Source Code Pro';-inkscape-font-specification:'Source Code Pro Heavy';text-align:center;letter-spacing:-5px;word-spacing:0px;baseline-shift:baseline;text-anchor:middle;fill:#5800b6;fill-opacity:1;stroke:none;stroke-width:0.75691181"
         id="path119210"
         inkscape:connector-curvature="0" />
      <path
         d="m 160.18213,289.27724 h 11.10945 v -8.91341 l -0.51674,-4.90883 h 0.25833 c 2.06687,2.06688 4.5213,3.2295 7.29865,3.2295 7.04029,0 13.75764,-6.3298 13.75764,-17.43925 0,-9.94684 -4.97342,-16.4058 -12.78878,-16.4058 -3.29409,0 -6.58818,1.55014 -9.04258,3.74621 h -0.25833 l -0.7751,-2.97114 h -9.04257 z m 15.50153,-19.63532 c -1.48554,0 -3.03567,-0.38752 -4.39208,-1.55013 v -11.88455 c 1.55014,-1.67933 2.90654,-2.32524 4.65047,-2.32524 3.16489,0 4.77966,2.19607 4.77966,7.49244 0,6.2006 -2.32524,8.26748 -5.03805,8.26748 z"
         style="font-style:normal;font-variant:normal;font-weight:900;font-stretch:normal;font-size:medium;line-height:1.25;font-family:'Source Code Pro';-inkscape-font-specification:'Source Code Pro Heavy';text-align:center;letter-spacing:-5px;word-spacing:0px;baseline-shift:baseline;text-anchor:middle;fill:#5800b6;fill-opacity:1;stroke:none;stroke-width:0.75691181"
         id="path119212"
         inkscape:connector-curvature="0" />
      <path
         d="m 194.7125,289.27724 h 11.10945 v -8.91341 l -0.51674,-4.90883 h 0.25833 c 2.06688,2.06688 4.5213,3.2295 7.29865,3.2295 7.0403,0 13.75764,-6.3298 13.75764,-17.43925 0,-9.94684 -4.97342,-16.4058 -12.78878,-16.4058 -3.29409,0 -6.58818,1.55014 -9.04258,3.74621 h -0.25833 l -0.77509,-2.97114 h -9.04258 z m 15.50154,-19.63532 c -1.48555,0 -3.03571,-0.38752 -4.39209,-1.55013 v -11.88455 c 1.55014,-1.67933 2.90654,-2.32524 4.65047,-2.32524 3.1649,0 4.77963,2.19607 4.77963,7.49244 0,6.2006 -2.32523,8.26748 -5.03801,8.26748 z"
         style="font-style:normal;font-variant:normal;font-weight:900;font-stretch:normal;font-size:medium;line-height:1.25;font-family:'Source Code Pro';-inkscape-font-specification:'Source Code Pro Heavy';text-align:center;letter-spacing:-5px;word-spacing:0px;baseline-shift:baseline;text-anchor:middle;fill:#5800b6;fill-opacity:1;stroke:none;stroke-width:0.75691181"
         id="path119214"
         inkscape:connector-curvature="0" />
      <path
         d="m 239.70673,278.6845 c 4.00454,0 7.81537,-1.80852 10.98024,-4.13376 h 0.25832 l 0.7751,3.35869 h 9.04258 v -17.95596 c 0,-10.59274 -5.94228,-15.11402 -15.11402,-15.11402 -5.42556,0 -10.46355,1.55014 -15.37237,4.26292 l 3.87537,7.23406 c 3.8754,-1.80852 6.58818,-2.71278 9.30093,-2.71278 3.61704,0 5.81309,1.03345 6.20063,3.35868 -14.72646,0.77507 -20.41038,4.52128 -20.41038,11.75533 0,5.29637 3.7462,9.94684 10.46355,9.94684 z m 3.61705,-8.52584 c -2.32524,0 -3.48785,-0.83969 -3.48785,-2.32526 0,-2.19604 1.93768,-4.00456 9.81764,-4.26292 v 4.13376 c -1.74392,1.29181 -3.7462,2.45442 -6.32979,2.45442 z"
         style="font-style:normal;font-variant:normal;font-weight:900;font-stretch:normal;font-size:medium;line-height:1.25;font-family:'Source Code Pro';-inkscape-font-specification:'Source Code Pro Heavy';text-align:center;letter-spacing:-5px;word-spacing:0px;baseline-shift:baseline;text-anchor:middle;fill:#5800b6;fill-opacity:1;stroke:none;stroke-width:0.75691181"
         id="path119216"
         inkscape:connector-curvature="0" />
    </g>
  </g>
</svg>
